/* XPM */
static char *bb11a9a972994a02cc9874d33becde5dQgujtFU5DnWsIWb7[] = {
/* columns rows colors chars-per-pixel */
"32 32 148 2 ",
"   c #639722",
".  c #659B22",
"X  c #689F23",
"o  c #6CA425",
"O  c #6EA926",
"+  c #6FA728",
"@  c #6FA828",
"#  c #70A727",
"$  c #70AB26",
"%  c #70AB29",
"&  c #71AB29",
"*  c #71AA28",
"=  c #72AB29",
"-  c #73AB29",
";  c #70AA2A",
":  c #71AA2A",
">  c #72AB2A",
",  c #73AB2B",
"<  c #70A928",
"1  c #71AD29",
"2  c #72AC28",
"3  c #73AC28",
"4  c #72AD28",
"5  c #73AD28",
"6  c #72AC29",
"7  c #73AC29",
"8  c #72AD29",
"9  c #73AD29",
"0  c #72AE28",
"q  c #73AF28",
"w  c #73AE29",
"e  c #72AC2A",
"r  c #73AC2A",
"t  c #73AD2A",
"y  c #72AC2B",
"u  c #73AD2B",
"i  c #73AE2A",
"p  c #73AE2B",
"a  c #74AE29",
"s  c #74AD2A",
"d  c #74AE2A",
"f  c #74AF2A",
"g  c #74AE2B",
"h  c #74AF2B",
"j  c #72AB2C",
"k  c #74AE2C",
"l  c #75AE2C",
"z  c #75AF2C",
"x  c #75AE2D",
"c  c #74AF2D",
"v  c #75AF2D",
"b  c #76AF2D",
"n  c #75AD2E",
"m  c #77AF2E",
"M  c #72AC2A",
"N  c #74B129",
"B  c #75B129",
"V  c #74B12A",
"C  c #75B12A",
"Z  c #74B02B",
"A  c #75B02B",
"S  c #75B12B",
"D  c #75B32A",
"F  c #76B22A",
"G  c #75B12C",
"H  c #75B02D",
"J  c #76B02C",
"K  c #76B12C",
"L  c #76B02D",
"P  c #77B02D",
"I  c #76B12D",
"U  c #77B12D",
"Y  c #75B22C",
"T  c #76B22C",
"R  c #77B32C",
"E  c #77B32D",
"W  c #75B02E",
"Q  c #77B22E",
"!  c #77B22F",
"~  c #77B32F",
"^  c #77B42C",
"/  c #77B52D",
"(  c #76B12C",
")  c #78B22D",
"_  c #78B32D",
"`  c #79B32D",
"'  c #78B12E",
"]  c #78B22E",
"[  c #78B22F",
"{  c #78B32F",
"}  c #79B32F",
"|  c #78B42C",
" . c #78B42D",
".. c #79B42D",
"X. c #78B52D",
"o. c #78B42F",
"O. c #79B52F",
"+. c #7AB52E",
"@. c #78B62E",
"#. c #79B62E",
"$. c #7AB62E",
"%. c #7AB72E",
"&. c #7BB62F",
"*. c #79B42E",
"=. c #7AB82F",
"-. c #7CB82F",
";. c #7BB82F",
":. c #79B430",
">. c #7AB530",
",. c #7BB530",
"<. c #7BB630",
"1. c #7BB731",
"2. c #7BB432",
"3. c #7AB532",
"4. c #7CB730",
"5. c #7CB732",
"6. c #7BB631",
"7. c #7CB930",
"8. c #7CBA30",
"9. c #7CB832",
"0. c #7DB832",
"q. c #7DB932",
"w. c #7EBA32",
"e. c #7FBA32",
"r. c #7FBC33",
"t. c #7FB935",
"y. c #7EBB34",
"u. c #7DB932",
"i. c #80BD34",
"p. c #81BD34",
"a. c #81BE34",
"s. c #81BE35",
"d. c #82BE34",
"f. c #82BF35",
"g. c #82BE36",
"h. c #82BF36",
"j. c #81BD34",
"k. c #81BA39",
"l. c #81BD39",
"z. c #84BF39",
"x. c #82C036",
"c. c #83C036",
"v. c #84C136",
"b. c #83C137",
"n. c #85C13A",
"m. c #88C13E",
"M. c #8BC53F",
"N. c #8DC742",
/* pixels */
". . . . + C / / r.:.{ n + + o o + + * $ o o o X . . . o + -.C o ",
". . . . 6 %.%.0.0.n * @ + o o o o + * * * o X . . . . . o / C o ",
". . . . f %.y.i.E * + + O + + + + + * * f O o . . . . . o 6 O . ",
". . . . + =.0.{ { + o o + # O + * * j * E 6 * + . . . o + 6 o . ",
". .   . o E 6 n + + . . . o * C * { n :.:.6 * + o o o + * 6 o . ",
". .   . * E 6 + + . . . . . * 6 f E E E c.{ + + + + + O * 6 o . ",
". . . X C C # + o . . . . . O * 6 6 E %.{ 6 O + o o + @ O 6 + X ",
"+ X . + $ C @ @ o . . . . o O * 6 E n { E E n + o o o * k.E { + ",
"6 6 { %.C 6 f + o o . . + O + * 6 f * 6 C %.0.%.+ o + l.m.i.i.:.",
"i.5.5.i.i.i.f + + + o + * O + + + E 6 + 6 C =.0.C * E i.0.0.M.N.",
"%.f * E v.c.i.* + O O * 6 * + O f C + O $ O + + O * 6 E n %.%.z.",
"O + + + * %.i.%.6 6 f * * n 6 6 n o + O + o o o o + + o + + $ $ ",
"+ o o o + * %.-.%.E 6 * * :.:.%.O + o o o . . . o o o o o o O O ",
"+ o o o o o + C $ f { 6 { 5.y.6 + + o o . . . . . o + + + @ * + ",
"o . . . . o + O O O E %.%.E E 6 O + + o X . . . . . * E 6 { E * ",
"o . . . . o + O O O $ C E { :.:.6 + o o o . .   . . * + + * + o ",
"o X . . . . + O O $ $ $ %.0.i.n * + o o o . . . . . O O * o o o ",
"o X . . . . + $ $ $ $ C i.i.{ + + + + o o o . . . o O * + o o + ",
"o o X . o o O $ $ O C 0.0.i.+ + + + + + * o o o o + * + o o o o ",
"o o o o + * * f f * f * n 6 + o o + O + + @ o o + O + + o o o o ",
"o o + + 6 6 %.a.%.E + + + + . . o * O + + + O O O * * + o o o o ",
"O + + * C i.v.v.0.E + + + . . . + * + + + + + $ C 0.* + o o o + ",
"O O C E { :.v.n.n.E * o o . . . + 6 6 * + O O $ ^ c.:.@ o o + $ ",
"C %.0.{ 6 n :.y.0.* + o . .   . + C =.E * 6 * O =.c.c.0.{ C O * ",
"%.i.5.{ E * { :.n + o o o . . . O %.a.n.0.n 6 { %.c.c.c.i.:.f 6 ",
"0.{ n f 6 6 { E + o o o o o . o O E i.c.v.0.{ { r.i.%.* * 6 C %.",
"/ n * O O { { + o o o o o o o o 6 f 0.0.%.E * 6 E * + o o + * -.",
"6 O o + O =.{ * o o o + + + + * { 0.E E + + + * * * + o o + + * ",
"o o o o O =.5.6 + + + $ C %.0.{ { :.5.6 + + * * 6 O o o + + o + ",
"o . . o O %.0.n * n 5.5.i.5.5.0.{ :.E $ O O N %.6 * O + * + o o ",
". . . o $ C %.%.{ y.0.5.:.n { %.E * O $ $ O O f * * 6 E { { + o ",
". . . X $ * E %.c.:.5.5.f + + + O + O * O o o o O o o + f -.C o "
};
