/* XPM */
static char *_e9abd7120344adaa6347e9467fbbe30k4oXL944wNtoIaV1[] = {
/* columns rows colors chars-per-pixel */
"32 32 175 2 ",
"   c None",
".  c #BD9B1D",
"X  c #BF9725",
"o  c #B69D26",
"O  c #B99D22",
"+  c #BC992D",
"@  c #BE9D34",
"#  c #B9963C",
"$  c #BF9C38",
"%  c #BDA22D",
"&  c #C4961F",
"*  c #CE951C",
"=  c #C49E1F",
"-  c #CC9C1C",
";  c #D19D17",
":  c #D0941A",
">  c #D29C1D",
",  c #CFA61A",
"<  c #D3A31E",
"1  c #D9A41E",
"2  c #DBAC1D",
"3  c #C49325",
"4  c #C79A24",
"5  c #CD9B26",
"6  c #CB962E",
"7  c #C29D2B",
"8  c #CA9F2E",
"9  c #D19D23",
"0  c #D09C2F",
"q  c #C79731",
"w  c #C39D31",
"e  c #C39B39",
"r  c #C6A227",
"t  c #CDA523",
"y  c #C9AC22",
"u  c #C7A72C",
"i  c #CCA62B",
"p  c #C3AA2C",
"a  c #CBAB2B",
"s  c #D5A422",
"d  c #D9A624",
"f  c #D4A922",
"g  c #DBAB25",
"h  c #D4A32D",
"j  c #DEA729",
"k  c #D5AD29",
"l  c #DBAC2B",
"z  c #D7B024",
"x  c #DBB626",
"c  c #D4B22D",
"v  c #DCB42C",
"b  c #C7A632",
"n  c #C4A936",
"m  c #C0A33B",
"M  c #CAAB3F",
"N  c #D3AF36",
"B  c #D9AD30",
"V  c #C4B13B",
"C  c #D4B332",
"Z  c #DCB433",
"A  c #DCBA35",
"S  c #D7B53A",
"D  c #DBB43B",
"F  c #D5B839",
"G  c #DCBB3C",
"H  c #E2B42B",
"J  c #E1AF34",
"K  c #E2B335",
"L  c #E1BD35",
"P  c #E8BC37",
"I  c #E3B43B",
"U  c #EAB73A",
"Y  c #E3BD3B",
"T  c #E9BC39",
"R  c #DEC33E",
"E  c #E7C035",
"W  c #E4C33C",
"Q  c #EAC63C",
"!  c #BE9C42",
"~  c #BDA140",
"^  c #C49F47",
"/  c #C1A341",
"(  c #C4AA47",
")  c #C4A54A",
"_  c #D1AC44",
"`  c #C7B547",
"'  c #D7B440",
"]  c #D9B543",
"[  c #DDBC43",
"{  c #D6B34B",
"}  c #DAB34C",
"|  c #DDBC4A",
" . c #C5A554",
".. c #C7A855",
"X. c #D2AF53",
"o. c #CBB659",
"O. c #D3B256",
"+. c #D5BC55",
"@. c #DCBE50",
"#. c #E4BB42",
"$. c #EABB45",
"%. c #E3BD49",
"&. c #E9BE49",
"*. c #E5BF52",
"=. c #C3AE63",
"-. c #D5B966",
";. c #D3B76D",
":. c #D3B869",
">. c #D9BD73",
",. c #DEC443",
"<. c #D3C957",
"1. c #DCC15E",
"2. c #DFC95A",
"3. c #E4C343",
"4. c #EAC344",
"5. c #E4CA44",
"6. c #EACA45",
"7. c #E3C54B",
"8. c #EBC54B",
"9. c #E6C94C",
"0. c #EBCB4C",
"q. c #F1C943",
"w. c #F2CC4D",
"e. c #E2D048",
"r. c #EAD44D",
"t. c #F0D34B",
"y. c #E5C452",
"u. c #EDC553",
"i. c #E6CD50",
"p. c #ECCB52",
"a. c #EFCE5A",
"s. c #F1CE53",
"d. c #F3CD59",
"f. c #EDD153",
"g. c #E7D15B",
"h. c #EAD45D",
"j. c #F5D357",
"k. c #F6D256",
"l. c #F6D554",
"z. c #F3D454",
"x. c #F9D155",
"c. c #FAD153",
"v. c #F9D857",
"b. c #F2D658",
"n. c #F7D55A",
"m. c #F2D459",
"M. c #FCD45B",
"N. c #F8D55D",
"B. c #F6DA5D",
"V. c #FBD85B",
"C. c #D2C165",
"Z. c #DACA63",
"A. c #DEC862",
"S. c #D6C568",
"D. c #D4C46C",
"F. c #D4C768",
"G. c #DCC46C",
"H. c #DDD062",
"J. c #DFD179",
"K. c #E2CB61",
"L. c #E2C964",
"P. c #E7CF63",
"I. c #E6C76E",
"U. c #E1C66A",
"Y. c #EED565",
"T. c #EDD863",
"R. c #EED966",
"E. c #F1DD66",
"W. c #E4CC72",
"Q. c #E9CB71",
"!. c #DCBE83",
"~. c #E7D08D",
"^. c #E4DA88",
"/. c #E8CE97",
"(. c #E4D095",
/* pixels */
"                                                                ",
"                                                                ",
"                                                                ",
"                              ^ X.O.-.                          ",
"                      ~ e q 6 0 3 3 X w ( C.                    ",
"                  ( % r 5 * * > > 9 s t . o ` J.                ",
"                M a t - 9 d 1 1 1 > > f k k a n W.              ",
"              _ t , < g l d 2 2 H g d d l l g k b Q.            ",
"            } B f g l K Z k x x E k l l K l K H v S I.          ",
"          O.D g H U I D Z A W W W Y 4.K K J U K H v @.          ",
"          | A K $.&.#.3.Y Z 3.p.3.6.A Z q.T I 4.P Y | G.        ",
"        +.7.G 4.u.8.3.0.5.A | u.%.N c L Q 4.8.&.4.6.7.1.        ",
"        L.7.3.6.9.s.9.9.0.0.u.[ D 4.6.3.3.0.p.d.8.0.0.2.        ",
"        K.9.z.z.s.0.G [ 7.p.u.#.I G 0.p.F [ a.p.j.z.0.g.F.      ",
"      D.h.0.l.z.v.f.0.p.d.p.d.M.0.0.7.p.p.9.9.z.j.j.p.h.Z.      ",
"        E.0.0.0.G 3.9.9.[ D 4.w.8.9.| | | p.3.4.8.p.p.h.H.      ",
"        T.i.n.8.3.3.7.] ' C x.w.5.b.| ] *.u.4.K #.j.f.E.<.      ",
"        R.9.N.j.V.z.7.7.m.[ w.V.0.B.a.a.d.%.8.c.s.V.p.g.        ",
"        Y.9.z.j.p.z.G a 7.p.p.N ] 7.9.f.7.C ,.n.j.z.3.g.        ",
"        P.9.s.0.d.p.0.5.3.7.d.%.%.a.p.f.r.5.i.b.0.6.R Y.=.      ",
"        U.y.0.8.p.7.6.t.5.F 7.y.u.p.3.R 5.e.i.7.0.3.7.1.        ",
"          | 3.4.$.8.3.Y W R G 3.p.#.Z A R ,.7.7.W G y...        ",
"            G P I $.#.#.Y C c 6.Y Z C Z G [ #.Y v Z { >.        ",
"            ] Z P l J I Z Z A L v v Z A Z I Z l k D ..          ",
"              u c z l g g g l l s g g g d g 2 f a ( /.          ",
"              A.p y k l s > s j - s 1 1 1 < < i / ~.            ",
"                F.V O = s 1 > : > > ; ; - 4 w ) (.              ",
"                  ^.o.m 7 4 5 9 h & & 8 w # :.                  ",
"                        ;.) $ + + @ !  .!.                      ",
"                                                                ",
"                                                                ",
"                                                                "
};
