/* XPM */
static char *result[] = {
/* columns rows colors chars-per-pixel */
"32 32 96 2 ",
"   c #15120F",
".  c #151210",
"X  c #191714",
"o  c #1C1916",
"O  c #1A1B1A",
"+  c #221F1C",
"@  c #5F4B44",
"#  c #5F4B44",
"$  c #5F4B44",
"%  c #5F4B44",
"&  c #5F4B44",
"*  c #5F4B44",
"=  c #272A27",
"-  c #2C2826",
";  c #242729",
":  c #5F4B44",
">  c #5F4B44",
",  c #5F4B44",
"<  c #5F4B44",
"1  c #5F4B44",
"2  c #31332F",
"3  c #252C32",
"4  c #2A2E32",
"5  c #2C3135",
"6  c #343432",
"7  c #3B3734",
"8  c #363934",
"9  c #3A3A36",
"0  c #3B3C3A",
"q  c #6A5955",
"w  c #6A5955",
"e  c #6A5955",
"r  c #6A5955",
"t  c #6A5955",
"y  c #6A5955",
"u  c #6A5955",
"i  c #6A5955",
"p  c #6A5955",
"a  c #6A5955",
"s  c #6A5955",
"d  c #6A5955",
"f  c #6A5955",
"g  c #6A5955",
"h  c #6A5955",
"j  c #6A5955",
"k  c #6A5955",
"l  c #6A5955",
"z  c #6A5955",
"x  c #6A5955",
"c  c #6A5955",
"v  c #6A5955",
"b  c #6A5955",
"n  c #6A5955",
"m  c #6A5955",
"M  c #6A5955",
"N  c #6A5955",
"B  c #6A5955",
"V  c #6A5955",
"C  c #6A5955",
"Z  c #6A5955",
"A  c #6A5955",
"S  c #6A5955",
"D  c #6A5955",
"F  c #6A5955",
"G  c #6A5955",
"H  c #6A5955",
"J  c #6A5955",
"K  c #6A5955",
"L  c #6A5955",
"P  c #6A5955",
"I  c #6A5955",
"U  c #6A5955",
"Y  c #6D9886",
"T  c #6A5955",
"R  c #6A5955",
"E  c #6A5955",
"W  c #6A5955",
"Q  c #6A5955",
"!  c #6A5955",
"~  c #6A5955",
"^  c #6A5955",
"/  c #6A5955",
"(  c #6A5955",
")  c #6A5955",
"_  c #6A5955",
"`  c #6A5955",
"'  c #6A5955",
"]  c #6A5955",
"[  c #6A5955",
"{  c #8EBF95",
"}  c #78B42D",
"|  c #6A5955",
" . c #97C897",
".. c #9CC897",
"X. c #9AC798",
"o. c #79B52F",
/* pixels */
" .} } } } } } } } } } } } } } } } } } } } } } } } } } } } } } } ",
"o. .} } } } } } } } } } } } } } } } } } } } } } } } } } } }  .o.",
"o.o. .} } } } } } } } } }  .} } } } } } } } } } } } } } }  .o.o.",
"o.o.o. .} } } } } } } } { k A d c B Z } } } } } } } } }  .o.o.o.",
"o.o.o.o.} } } } } } ! h G K L J L L J H j ~ } } } } }  .o.o.o.o.",
"o.o.o.o.o. .} } E V n m S m c z s c m N S m C Y } }  .o.o.o.o.o.",
"o.o.o.o.o.o.} k b K F c a p y w w y u a c S L m Z  .o.o.o.o.o.o.",
"o.o.o.o.o.| k m K b p w 4 3 = * * : : 4 q i v K N I X.o.o.o.o.o.",
"o.o.o.o.o.I d m c y 5 - , * + + + + * , - > t d n d I o.o.o.o.o.",
"o.o.o.o.| c K d r > $ + X . . . . . . o o * < w s K m | o.o.o.o.",
"o.o.o...T b F i : * X       . . . . . . . . $ : y S J Z X.o.o.o.",
"o.o.o.U S x M y > $ +   .   . . . . . . . o = > t m n S U o.o.o.",
"o.o.o.[ f d x y > + O X . . . . . . . . . > 6 > r s z c R o.o.o.",
"o.o.o.o.l a a t ; & > . . . . . . . .   X 0 6 > w p s P o.o.o.o.",
"o.o.o.o.Q x x t = 6 0 + . . . . . .     + 0 6 > t z m ! o.o.o.o.",
"o.o.o.o.! m N y > 7 0 + . . . . . . .   # 0 6 > t v L ! o.o.o.o.",
"o.o.o.o.Q n m y : 2 5 O . . . . . . . . # 0 r , r b N ! o.o.o.o.",
"o.o.o.o.Q n m y : 6 > X .   . . .   . . . # 7 , r b N ! o.o.o.o.",
"o.o.o.o.Q m m y < , & . . . . . . . . . @ 8 8 1 t v N ! o.o.o.o.",
"o.o.o.o.Q b d t > 7 5 .   . . . . . .   o 2 2 < r f M ! o.o.o.o.",
"o.o.o.o.! x s i 3 - < X . . . . . . . . o : 1 > t d x g o.o.o.o.",
"o.o.o.o.E F N c 4 + & X . . . .     .   X ; > > d M M D o.o.o.o.",
"o.o.o.^ F F F b 5 # O X . . . .       .   + > 5 f F J G ^ o.o.o.",
"o.o.o./ x M m d 4 ; % X . . . .       .   & 6 > p m m v K o.o.o.",
"o.o.o._ m M m d 3 % O . . . . . . . . . . @ 1 > s n m m ) o.o.o.",
"o.o.o.b K L J c 3 % O O O O O O O X O O O O % % d F L K n o.o.o.",
"o.o.o.a z z d p y p u y y p u u u u u u t u y t i d d d s o.o.o.",
"o.o.o.a m K J J L ) / m m _ ` ` ) ` ` K v K / L S m m m d o.o.o.",
"o.o.o.z / ' ] ` ` ` ` J J / ) ` ` ` ] ` N / ) ] ] _ _ ( m o.o.o.",
"o.o. .} } } } } } } } } } } } } } } } } } } } } } } } } }  .o.o.",
"o. .} } } } } } } } } } } } } } } } } } } } } } } } } } } } } o.",
"} } } } } } } } } } } } } } } } } } } } } } } } } } } } } } }  ."
};
