/* XPM */
static char *bf0e77a32892409dfb5c691af6cdb723UoOcaEhybuEFRLnb[] = {
/* columns rows colors chars-per-pixel */
"32 32 207 2 ",
"   c None",
".  c #1E1C1D",
"X  c #3E0E02",
"o  c #2B1403",
"O  c #2D1A0D",
"+  c #281F09",
"@  c #3E1401",
"#  c #371C02",
"$  c #351C0C",
"%  c #391D0D",
"&  c #371605",
"*  c #3F081F",
"=  c #2F1B19",
"-  c #2A1918",
";  c #3B1414",
":  c #331D13",
">  c #3B1C13",
",  c #3C151C",
"<  c #331D1E",
"1  c #39161A",
"2  c #2B2209",
"3  c #3D200D",
"4  c #3A2106",
"5  c #2C231A",
"6  c #362112",
"7  c #342617",
"8  c #1A1721",
"9  c #0E1D39",
"0  c #1C1636",
"q  c #2C1C23",
"w  c #2C1B2B",
"e  c #241E28",
"r  c #341B25",
"t  c #34122B",
"y  c #311B2C",
"u  c #3D1A2B",
"i  c #3C1722",
"p  c #231837",
"a  c #391536",
"s  c #290F3C",
"d  c #1C272A",
"f  c #042B31",
"g  c #0D2C33",
"h  c #07293D",
"j  c #162A3C",
"k  c #0B323C",
"l  c #013036",
"z  c #14303C",
"x  c #0D242A",
"c  c #292228",
"v  c #262438",
"b  c #312330",
"n  c #392422",
"m  c #431405",
"M  c #491302",
"N  c #451C02",
"B  c #4C1B02",
"V  c #49140C",
"C  c #441C0A",
"Z  c #4B1A0B",
"A  c #441311",
"S  c #48161A",
"D  c #4F1204",
"F  c #4B2100",
"G  c #412210",
"H  c #502215",
"J  c #431523",
"K  c #411D27",
"L  c #713E2B",
"P  c #6D3A3A",
"I  c #7C3C32",
"U  c #773A3A",
"Y  c #6D4138",
"T  c #1C1C40",
"R  c #2B1544",
"E  c #1D2240",
"W  c #282049",
"Q  c #5E3A47",
"!  c #6A3845",
"~  c #723C44",
"^  c #773F4B",
"/  c #683F51",
"(  c #57414A",
")  c #654243",
"_  c #6C4449",
"`  c #624452",
"'  c #7D4E51",
"]  c #7D5859",
"[  c #79444C",
"{  c #802F35",
"}  c #85363B",
"|  c #87504D",
" . c #824D55",
".. c #895159",
"X. c #8A5758",
"o. c #B56D4D",
"O. c #B6704E",
"+. c #BD675D",
"@. c #AD7259",
"#. c #B3745B",
"$. c #AA764E",
"%. c #845964",
"&. c #85546A",
"*. c #9B766D",
"=. c #9A6E71",
"-. c #957575",
";. c #9D7574",
":. c #A96F6D",
">. c #A9756A",
",. c #A67479",
"<. c #A67678",
"1. c #B57068",
"2. c #C1716A",
"3. c #B98D6B",
"4. c #BE9167",
"5. c #BA957A",
"6. c #B78D77",
"7. c #C98E58",
"8. c #D18D56",
"9. c #D4925A",
"0. c #DA905F",
"q. c #CC956A",
"w. c #C79465",
"e. c #D79864",
"r. c #C29375",
"t. c #C89C79",
"y. c #CE9172",
"u. c #EAB97C",
"i. c #F5B476",
"p. c #F5BA75",
"a. c #F4B47A",
"s. c #F3BA7A",
"d. c #FABA7B",
"f. c #FBB779",
"g. c #F7C17D",
"h. c #C87FB6",
"j. c #599CA8",
"k. c #5D9EB2",
"l. c #698FA2",
"z. c #6A97AC",
"x. c #669BA9",
"c. c #6F93B3",
"v. c #7695B2",
"b. c #7CC3D9",
"n. c #7EDBEC",
"m. c #BD9787",
"M. c #BB9B95",
"N. c #AD9684",
"B. c #BCA291",
"V. c #B6A095",
"C. c #BE8CAF",
"Z. c #B190BB",
"A. c #BC86B7",
"S. c #C79988",
"D. c #C79696",
"F. c #D09295",
"G. c #C6A394",
"H. c #D0A096",
"J. c #CFBF9D",
"K. c #DEBD9A",
"L. c #E8B886",
"P. c #F1BB84",
"I. c #FDBA82",
"U. c #F4B88A",
"Y. c #E3BC9F",
"T. c #E9BB97",
"R. c #F4BC93",
"E. c #FEBF93",
"W. c #C888B7",
"Q. c #C192BE",
"!. c #C292A7",
"~. c #DABDAA",
"^. c #D6B5B8",
"/. c #E9BBA3",
"(. c #E8C289",
"). c #F9C28A",
"_. c #E7C499",
"`. c #FFD990",
"'. c #F4C59B",
"]. c #DCC7A9",
"[. c #E7C5A0",
"{. c #FFD9AA",
"}. c #FFE4B0",
"|. c #EA9EC7",
" X c #F79FD2",
".X c #F39CC9",
"XX c #D1B2C2",
"oX c #DCA9D3",
"OX c #D9A6CF",
"+X c #E6A5CB",
"@X c #E2B0C9",
"#X c #E6ADD0",
"$X c #91C5C9",
"%X c #8AC6D9",
"&X c #95CAD2",
"*X c #A2CDDD",
"=X c #89CBE5",
"-X c #98CAE7",
";X c #85D4E5",
":X c #A1D1E7",
">X c #DDCACC",
",X c #E6C9C1",
"<X c #FFF0EC",
"1X c #FFECF5",
"2X c #FFF4FE",
"3X c #FFF9FD",
"4X c #FFF6F4",
/* pixels */
"                                                                ",
"                                                                ",
"              .       d       c       x                         ",
"            r XXw   k $Xg   - ^.y   h *Xf                       ",
"          w +X|.W.p %X;Xx.j @X|.W.s -Xb.j.f                     ",
"      g j p +X XW.R =Xn.j.9 #X.Xh.R -X;Xk.h v w                 ",
"    f $X:X9 oX|.A.W =X;Xz.E OX+XQ.0 -X;Xc.T OX+Xy               ",
"    g &X%Xv.a !.a p h z.j 0 a C.t v f z.T Z.+X+Xr               ",
"      g x.l.w i r - c 8 e w t u = 5 . e a C.!.J                 ",
"        k z >X^.V.$ B.*.;._ %.1 B.].,X) &.J S                   ",
"          8 M.H.G.# t.@.1.U  .S S.S.D.P  .S S.@                 ",
"          b ) Y m.N $.o.+.} ..A S.L U ^ ,.A w.T.=               ",
"          c 3X4X) C t.O.+.{ ..S P <X1X~ <.V 0.R.6               ",
"          d 3X3X( ; @.o.2.} .., ) 1X1X~ =.Z 0.a.~.-             ",
"          e ` / y r @.o.1.U ' , i Q [ ~ *.N 8.I.K.7             ",
"          c !.J 2X1 >.#.:.P %., 2XK D.U *.N 9.d.Y.O             ",
"          q M.> ] ; X.| ..^ ! u ` , F.I <.m 9.I./.,             ",
"          < B.o ] _ , , J i u Q ` 1 F.I <.m e.i.y.;             ",
"          = G.>   2X3X3X2X( 3X2X3X1 S.I ' X 0.I.M >             ",
"        < O >.m.q e c q r r - < < D.:.U X.m e.8.B m.            ",
"        % S.m >.;.-.-.-.<.<.-.-.=.<.~  .m r.4.B P.3.+           ",
"        3 m.5.Z m H C @ M D X Z Z M V m r.F & _.U.t.=           ",
"          6 S.6.C 3.w.e.e.7.e.w.7.w.q.q.L.T.[.5.m.$             ",
"            o G # _.P.p.p.p.p.d.g.p.d.a.P.N # 6 =               ",
"                % Y.{.{.s.`.g.s.g.s.a.d.I.q.$                   ",
"                & Y.{.}.(.u.P.).L.u.).f.f.q.O                   ",
"                N T.U.L.(._.[.K.N '.u.I.P.w.2                   ",
"              : r.U.E.L.5.# o 6 & Y.R.q.w.4                     ",
"              % L.U.U.M 3       n ~./.5.3                       ",
"              O _.L.T.S.O         : : :                         ",
"              5 J.].N.:                                         ",
"                2 + 7                                           "
};
