/* XPM */
static char *f5084da6758f4b5ab9e57741d0dcfa98Yn40XSi7OdPaEvS3[] = {
/* columns rows colors chars-per-pixel */
"32 32 203 2 ",
"   c None",
".  c #3C0E01",
"X  c #370A09",
"o  c #2D1C0C",
"O  c #291804",
"+  c #3F1501",
"@  c #3C1C02",
"#  c #35190C",
"$  c #3D1D0D",
"%  c #371607",
"&  c #2C1C14",
"*  c #2D1C1A",
"=  c #251A18",
"-  c #341D14",
";  c #33141C",
":  c #3C1C1B",
">  c #3A1718",
",  c #3A210E",
"<  c #30260D",
"1  c #242315",
"2  c #29231A",
"3  c #362311",
"4  c #3B2412",
"5  c #31211B",
"6  c #1B182A",
"7  c #2B1B24",
"8  c #2C1B2B",
"9  c #281826",
"0  c #3E1525",
"q  c #39142A",
"w  c #331928",
"e  c #27183A",
"r  c #391535",
"t  c #03252F",
"y  c #0C2C3B",
"u  c #082639",
"i  c #15233C",
"p  c #172B37",
"a  c #242221",
"s  c #2B202A",
"d  c #2B2522",
"f  c #31232B",
"g  c #342226",
"h  c #2A2637",
"j  c #431400",
"k  c #4D1300",
"l  c #43150C",
"z  c #451A04",
"x  c #521807",
"c  c #400E17",
"v  c #45131C",
"b  c #451A1B",
"n  c #461917",
"m  c #462207",
"M  c #420E28",
"N  c #431428",
"B  c #6C2E2F",
"V  c #68382A",
"C  c #663A39",
"Z  c #733D34",
"A  c #743539",
"S  c #7A3A39",
"D  c #6F473F",
"F  c #79423B",
"G  c #191B43",
"H  c #321741",
"J  c #092B45",
"K  c #182140",
"L  c #0E3141",
"P  c #6B3E4D",
"I  c #693B44",
"U  c #753842",
"Y  c #6E3F53",
"T  c #743851",
"R  c #5F4050",
"E  c #67424A",
"W  c #764646",
"Q  c #684353",
"!  c #7E575C",
"~  c #823D42",
"^  c #824D4D",
"/  c #835255",
"(  c #895555",
")  c #8F5456",
"_  c #AB6A58",
"`  c #AE6650",
"'  c #BC6F5B",
"]  c #B16A5D",
"[  c #AA745E",
"{  c #8C5368",
"}  c #9B6F6C",
"|  c #99746B",
" . c #8E7A77",
".. c #8B7673",
"X. c #9E7574",
"o. c #997C79",
"O. c #957A75",
"+. c #B26766",
"@. c #BC7366",
"#. c #B26D70",
"$. c #A17B79",
"%. c #A67773",
"&. c #94807F",
"*. c #BB9B7C",
"=. c #BA9776",
"-. c #CB8F5B",
";. c #D68D5C",
":. c #CB955C",
">. c #D39459",
",. c #C68F6B",
"<. c #CB8D64",
"1. c #D18E61",
"2. c #CD956A",
"3. c #C4966A",
"4. c #DB9161",
"5. c #D49B65",
"6. c #C69A7A",
"7. c #D09374",
"8. c #F8B96E",
"9. c #ECBB7C",
"0. c #EAB378",
"q. c #FFB574",
"w. c #FBB57B",
"e. c #F3BC7B",
"r. c #F5B879",
"t. c #5D97B3",
"y. c #6A95AA",
"u. c #6798B7",
"i. c #739CBC",
"p. c #7DD0EA",
"a. c #BD9C8B",
"s. c #B69783",
"d. c #B39F92",
"f. c #BD9E9B",
"g. c #B9A599",
"h. c #BF91AD",
"j. c #AC91BE",
"k. c #B787AD",
"l. c #CB9788",
"z. c #CD8E96",
"x. c #C89D92",
"c. c #D49C92",
"v. c #E19E8E",
"b. c #C0A88E",
"n. c #CEA090",
"m. c #DBBB91",
"M. c #DEBC99",
"N. c #E5BB82",
"B. c #ECBD84",
"V. c #EBB78F",
"C. c #E5BA89",
"Z. c #ECBB8C",
"A. c #F2B784",
"S. c #F4BB84",
"D. c #FDB982",
"F. c #F2BC8B",
"G. c #F4B78B",
"H. c #E4BF96",
"J. c #EBBC95",
"K. c #E7BF99",
"L. c #F5BD99",
"P. c #C785AA",
"I. c #C58AA7",
"U. c #C29EA2",
"Y. c #CF83B1",
"T. c #C28DB5",
"R. c #D9B7A4",
"E. c #DEA5BE",
"W. c #E0BCA4",
"Q. c #EAC28D",
"!. c #EBC187",
"~. c #F7C484",
"^. c #E6C497",
"/. c #FFD693",
"(. c #DFC2A2",
"). c #DFC0BB",
"_. c #FFDCA7",
"`. c #E6C8BB",
"'. c #FBDAB1",
"]. c #CE9EC4",
"[. c #EE9CC7",
"{. c #F59AC7",
"}. c #DBA8C5",
"|. c #CDB1C0",
" X c #DAAFD0",
".X c #EDA6CB",
"XX c #E6A9CC",
"oX c #8FC2DA",
"OX c #80C7DD",
"+X c #96C3D6",
"@X c #8EC9E3",
"#X c #83CEEA",
"$X c #96CCE6",
"%X c #97CAE6",
"&X c #88D2EA",
"*X c #A2CAE3",
"=X c #DBC5C7",
"-X c #FFE6C0",
";X c #FFEEED",
":X c #FFEFFA",
">X c #FFF4F5",
",X c #FFF2FF",
"<X c #FFF8FF",
/* pixels */
"              9       y       7       i                         ",
"            w |.7   L +Xy   9 |.w   u *Xi                       ",
"          7 E..XP.e oX&Xu.i XX[.P.e %X#Xy.L                     ",
"      p p 6 .X{.Y.H @Xp.t.K XX{.Y.H @Xp.u.J 6 s                 ",
"    y oX@XJ  X[.T.e $XOXi.G ].XXk.e $X&Xu.G  X}.d               ",
"    y @X#Xu.r P.q h t y.i e r T.r 6 u y.G j.}.E.=               ",
"      J t.y.8 > * = 1 2 8 w 0 ; * * a 8 r T.I.v                 ",
"        J u =X`.g.o b.| X.P ! > a.`.).I { M v                   ",
"          9 x.x.d., l.] #.U / l n.l.l.W / v l.j                 ",
"          g D V f.n _ ' +.~ ^ l x.Z Z F } . 7.L.-               ",
"          8 >X>XE X v.@.+.S / n C >X;XC %.x 1.G.$               ",
"          9   >XE b _ ` @.S ( X E :X>XW } j >.A.W.*             ",
"          8 E E * o [ ' ] S ( b w Q A A $.@ :.9.M.o             ",
"          s U.>   - [ @.+.A ( > ,X0 z.S | @ -.~.^.4             ",
"          a d.$ W b ^ / { T Y 0 P c c.F X.+ 4.w.H.O             ",
"          2 g.# ( I N 0 M M q R Q > c.V $.l ;.D.=.<             ",
"          5 g.#         ,XQ ,X<X,X: l.Z ! l 4.w.@               ",
"          & o.g.= = f 7 ; ; f 7 w f.%.Z ! $ <.2.3               ",
"            *  .&.....o.O.O. . .o.%.B ) . a.s.#                 ",
"              g * : m X @ @ @ + j k x k 6.@ -                   ",
"                  % ,.5.:.5.;.>.>.>.-.2.J.z                     ",
"                : R.J.e.8.8.q.q.8.8.e.e.0.H.3                   ",
"              - # R.-X_.e./.S.S.r.r.e.~.~.!.m.                  ",
"            - s.@ (.'._.r.r.F.Z.S.e.9.9.9.F.Z.M.                ",
"            - s.@ m.Q.B.w.w.D.A.B.N.B.F.k ,.F.J.&               ",
"            * , m.Q.Q.N.F.L.V.J.H.^.F.A.L.k ,.=.&               ",
"              O ^.N.Q.m o * & 5 * # V.r.S.2.z -                 ",
"              & =.C.C.*.=         - J.~.0.3.#                   ",
"                @ 6.6.=.2           @ C.S.3.<                   ",
"                  % @ 4             O *.C.=.1                   ",
"                                      o *.*.d                   ",
"                                        % $                     "
};
