/* XPM */
static char *_d4f9ab61c274567f686d945e2544aefEKwVfvnI6meT3tzd[] = {
/* columns rows colors chars-per-pixel */
"32 32 220 2 ",
"   c #221B17",
".  c #29201D",
"X  c #302521",
"o  c #312723",
"O  c #322723",
"+  c #332724",
"@  c #332824",
"#  c #352A26",
"$  c #352B27",
"%  c #3B2F2B",
"&  c #3D302C",
"*  c #3D312E",
"=  c #3F322E",
"-  c #40332E",
";  c #41332E",
":  c #41332F",
">  c #42332F",
",  c #42342F",
"<  c #423430",
"1  c #433430",
"2  c #423530",
"3  c #433530",
"4  c #423532",
"5  c #433532",
"6  c #433632",
"7  c #443530",
"8  c #443532",
"9  c #443632",
"0  c #443732",
"q  c #453732",
"w  c #463732",
"e  c #463833",
"r  c #473834",
"t  c #463934",
"y  c #473934",
"u  c #463935",
"i  c #473935",
"p  c #473A35",
"a  c #483935",
"s  c #483A35",
"d  c #493A37",
"f  c #493B37",
"g  c #4A3A36",
"h  c #4B3A36",
"j  c #4A3B37",
"k  c #4C3B36",
"l  c #4D3B36",
"z  c #4B3C37",
"x  c #4C3C37",
"c  c #4E3C36",
"v  c #493C38",
"b  c #4A3D3A",
"n  c #4C3C38",
"m  c #4C3D39",
"M  c #4F3F39",
"N  c #4D3E3A",
"B  c #4D3F3A",
"V  c #4C3F3B",
"C  c #4F3F3A",
"Z  c #4E3F3B",
"A  c #4F3F3B",
"S  c #4B3F3D",
"D  c #513F39",
"F  c #513F3B",
"G  c #523F3A",
"H  c #51413B",
"J  c #53413B",
"K  c #51403C",
"L  c #52413C",
"P  c #52413D",
"I  c #50423D",
"U  c #53423C",
"Y  c #52423E",
"T  c #53433E",
"R  c #54423C",
"E  c #55423C",
"W  c #56433C",
"Q  c #57433C",
"!  c #54433E",
"~  c #54433F",
"^  c #53443F",
"/  c #55443F",
"(  c #57453F",
")  c #564340",
"_  c #574340",
"`  c #544440",
"'  c #554441",
"]  c #564440",
"[  c #574440",
"{  c #574541",
"}  c #564640",
"|  c #574640",
" . c #574641",
".. c #564642",
"X. c #574642",
"o. c #574744",
"O. c #594741",
"+. c #5A4640",
"@. c #5A4740",
"#. c #5A4741",
"$. c #5B4741",
"%. c #594742",
"&. c #584743",
"*. c #5A4742",
"=. c #5B4841",
"-. c #594843",
";. c #5A4842",
":. c #5B4842",
">. c #5B4942",
",. c #5C4842",
"<. c #5D4942",
"1. c #5C4843",
"2. c #5C4943",
"3. c #5D4943",
"4. c #5E4943",
"5. c #5D4A43",
"6. c #5E4A43",
"7. c #5A4844",
"8. c #5A4944",
"9. c #5B4944",
"0. c #5B4945",
"q. c #5B4A45",
"w. c #5C4A44",
"e. c #5D4A44",
"r. c #5E4A44",
"t. c #5F4A44",
"y. c #5E4B44",
"u. c #5F4B44",
"i. c #5C4A46",
"p. c #5D4A46",
"a. c #5C4B46",
"s. c #5D4B46",
"d. c #5D4B47",
"f. c #5D4C47",
"g. c #594B49",
"h. c #5D4B48",
"j. c #5F4B48",
"k. c #5C4C48",
"l. c #5D4C49",
"z. c #5C4D49",
"x. c #5F4D48",
"c. c #5F4D49",
"v. c #5F4F49",
"b. c #5D4D4A",
"n. c #5E4D4A",
"m. c #5E4F4A",
"M. c #5E4E4B",
"N. c #604B44",
"B. c #614D46",
"V. c #604B48",
"C. c #604D48",
"Z. c #604F48",
"A. c #604E4A",
"S. c #604F4A",
"D. c #604F4B",
"F. c #614F4B",
"G. c #644F48",
"H. c #644F49",
"J. c #614F4C",
"K. c #61504B",
"L. c #645049",
"P. c #64504A",
"I. c #65504A",
"U. c #64514A",
"Y. c #64504B",
"T. c #64514B",
"R. c #65514B",
"E. c #65524B",
"W. c #61504C",
"Q. c #61504D",
"!. c #62504C",
"~. c #63514C",
"^. c #62514D",
"/. c #64514C",
"(. c #64514D",
"). c #64524C",
"_. c #64524D",
"`. c #65524D",
"'. c #66524C",
"]. c #67534D",
"[. c #64524E",
"{. c #65524E",
"}. c #65534E",
"|. c #66534E",
" X c #67544F",
".X c #69554E",
"XX c #68544F",
"oX c #68554F",
"OX c #615350",
"+X c #625351",
"@X c #645451",
"#X c #665450",
"$X c #665550",
"%X c #665551",
"&X c #675652",
"*X c #685550",
"=X c #685551",
"-X c #685651",
";X c #695651",
":X c #6A5651",
">X c #685652",
",X c #695652",
"<X c #685653",
"1X c #6A5752",
"2X c #6A5753",
"3X c #695754",
"4X c #6A5754",
"5X c #6A5853",
"6X c #6A5854",
"7X c #6B5854",
"8X c #6B5954",
"9X c #6A5955",
"0X c #6B5955",
"qX c #685957",
"wX c #6C5A56",
"eX c #6D5B57",
"rX c #6D5B58",
"tX c #6D5C59",
"yX c #6E5C5A",
"uX c #6E5D5B",
/* pixels */
". 3 3 w w w w 3 3 3 3 - - - o o   o o o o o o o o o o o o o o - ",
"_ W [ +.+.+.+.+.+.+.+.2.2.2.2.2.w D.w.k W W w.D.G.G.w.'.+.2.+.2.",
"j Z x Z Z [ [ ;.;.*XoXoXoXL.L.L.z L.L.+.+.D D D D [ [ W Z Z j j ",
"9X9XrX*X*X*X*X*X*XL.L.L.D D f.D e L.L.G.G.9XuXuXuXuXrXrXrXrX3X9X",
"Q.Q.D.D.*X'.'.L.L.+.L.f.*X*XL.L.p '.L.L.G.*X*X*X9XrXrX9XD.[ o.Q.",
"G.L.L.L.L.'.L.L.L.L.*XL.L.L.L.L.p *X*X*X*X*X*XL.+.;.;.w.W N.G.G.",
";.+.+.+.2.2.+.+.*X*X*X*XL.*XL.L.p '.L.L.*XL.L.L.L.'.'.L.D.[ [ +.",
"oX*X*X*X*XoXoX'.'.2.J J J J 2.2.3 '.'.'.'.*X'.'.L.L.L.L.L.L.L.'.",
"$ j v v j j j j p p p p p p j j $ p p p j j p p j j j j j j p p ",
"v 9X9XoXoX'.L.L.L.G.G.G.L.L.L.;.;.;.;.;.w.2.2.w.w.w.w.w.oXL.'.5X",
"v 9XD.w.w.2.2.2.+.+.+.;.;.;.;.;.;.;.2.D.w.( W ( [ Z [ [ [ L k [ ",
"v 9X9X9X9XoXoXw.2.2.w.w.w.w.w.w.L J L [ J.Q.D.Q.$X$X$X9X$X9X X*X",
"p 9X9X9X9XoX2.L.'.;.;.;.;.;.;.+.$.2.2.w.( L L Z Z 9X$Xv.v.'.'.'.",
"& D.v.[ [ [ ( ;.L L L D L L Z Z Z Z D D Z [ D D [ [ [ [ [ [ [ _ ",
"w j.j.D.v.v.'.'.'.'.'.'.v.D.D.D.D.2.w.w.w.w.w.w.w.w.w.w.w.2.w.D.",
"3 N.w.w.w.D.D.D.D.D.D.;.2.w.w.w.w.W W W W W W W W W W W W x k w.",
"@ w , 3 3 3 3 3 3 & & , , o o + . @ @ @ @ @ @ @ @ w w w w w w w ",
"w.D.G.D.j.j.v.j.p p L ;.;.2.2.w.3 N.N.N.N.N.N.N.N.2.2.w.w.w.w.w.",
"w.w.w.w.w.w.w.w.w.w.L L [ $XD.D.w D.V._ _ _ 7.7.;.;.7.v.v.7.7.7.",
"$X*X*X*X*X'.L.'.'.oXoXL.'.'.'.'.j L.L.G.*X9X9X9X$X$X$XD.D.'.'.'.",
"'.9X9X9X*XwXrXwXwX9X'.'.'.'.*X'.j '.L.G.L.L.*X*X$X X$X$X$X$XQ.v.",
"w.G.G.*X9X9X*X*X*X*XG.L.L.L.*X'.j oX'.'.'.L.L.G.D.D.D.D.D.D.[ 2.",
"N.N.G.G.G.G.G.G.G.G.G.9XwXwX9XG.w G.G.G.*X*X*X$X$X9XD.D.D.w.w.N.",
"N.N.N.w.N.N.N.w.w.w.w.w.w.N.w.2., 2.2.2.;.;.;.;.2.2.2.2.2.2.2.2.",
". 3 3 , , 3 3 3 3 3 3 3 w , , 3 @ , , , 3 3 3 3 3 3 , , 3 , - - ",
"3 w.w.2.2.w.w.w.w.2.w.w.w.w.w.w.w.w.w.w.w.w.w.w.w.w.2.B.B.B.B.2.",
"& [ S S g.g.OXOXOXOXOXOXv.7.7.7.7.7.7.Q.Q.'.*X3X'.'.'.2.+.+.( k ",
", +.+.$X$Xv.+.K.Q.Q.Q.'.*X*X3X3X3Xv.7.L L L L L 7.7.3X'.3X2.2.2.",
"3 2.[ [ Z K.K.Q.Q.Q.'.'.'.w.w.w.w.w.2.+.+.+.^ +.+.;.w.w.w.2.N.2.",
"3 2.+.Z Z Z L L L +.+.+.2.'.Q.Q.'.'.'.'.'.'.;.;.;.2.w.N.w.2.2.2.",
"3 +.+.( ( +.;.;.;.2.2.2.w.w.2.w.w.w.N.w.w.2.2.2.2.2.2.w.N.N.2.2.",
"% w.w.w.2.2.2.w.( ( +.+.+.( ( ;.;.;.( ( ( ( ( ( ( ( ( ( ( ;.W J "
};
