/* XPM */
static char *_7cd2894ea1c40f4acf18efd53de3637rIBObmM6qkg038H1[] = {
/* columns rows colors chars-per-pixel */
"32 32 205 2 ",
"   c None",
".  c #2E1A0F",
"X  c #2E1A14",
"o  c #2D1D1C",
"O  c #2F1717",
"+  c #341C1C",
"@  c #3A191C",
"#  c #371619",
"$  c #0C2A00",
"%  c #152A01",
"&  c #1B2A03",
"*  c #1B230B",
"=  c #142C0B",
"-  c #1A2709",
";  c #0E3600",
":  c #083500",
">  c #113300",
",  c #1C3101",
"<  c #1B340B",
"1  c #103800",
"2  c #0F2319",
"3  c #132612",
"4  c #1C2515",
"5  c #152C12",
"6  c #1C2B14",
"7  c #1E2B1A",
"8  c #16281A",
"9  c #232809",
"0  c #272E14",
"q  c #2D2219",
"w  c #242717",
"e  c #342218",
"r  c #2E1A23",
"t  c #321221",
"y  c #361923",
"u  c #3F1B2A",
"i  c #1B2726",
"p  c #4A0D0D",
"a  c #430E08",
"s  c #401102",
"d  c #441E06",
"f  c #501C0E",
"g  c #460B1A",
"h  c #4B0915",
"j  c #47141A",
"k  c #55111C",
"l  c #64051D",
"z  c #570727",
"x  c #4E1422",
"c  c #511322",
"v  c #450B24",
"b  c #600C24",
"n  c #432026",
"m  c #732439",
"M  c #0F5B00",
"N  c #145900",
"B  c #1B5C01",
"V  c #1E550A",
"C  c #255408",
"Z  c #265712",
"A  c #2A4719",
"S  c #176500",
"D  c #1D6100",
"F  c #216500",
"G  c #3A7F0D",
"H  c #387C06",
"J  c #3D731A",
"K  c #2D4E24",
"L  c #38702F",
"P  c #3D7035",
"I  c #437900",
"U  c #4D741B",
"Y  c #46781C",
"T  c #456C2D",
"R  c #4C6E2B",
"E  c #50682C",
"W  c #457222",
"Q  c #4A7223",
"!  c #45762A",
"~  c #4A6D3A",
"^  c #426933",
"/  c #546E37",
"(  c #497039",
")  c #7C2C4F",
"_  c #693945",
"`  c #6B2847",
"'  c #536848",
"]  c #4D7F42",
"[  c #8E1D31",
"{  c #9A1B2C",
"}  c #A91C39",
"|  c #872F3F",
" . c #912439",
".. c #802747",
"X. c #AC3A4C",
"o. c #BE334B",
"O. c #AC3A58",
"+. c #BC3351",
"@. c #B23C59",
"#. c #C23255",
"$. c #C1364B",
"%. c #884C55",
"&. c #94455D",
"*. c #9A485B",
"=. c #81565E",
"-. c #A3424E",
";. c #A64352",
":. c #B04152",
">. c #B15B5B",
",. c #A3625E",
"<. c #924F60",
"1. c #995061",
"2. c #B55768",
"3. c #A75067",
"4. c #8E7E67",
"5. c #9D6C74",
"6. c #94626B",
"7. c #A8606E",
"8. c #BC6063",
"9. c #AB6878",
"0. c #C65B6D",
"q. c #3B800B",
"w. c #6E9D1B",
"e. c #689B17",
"r. c #719D1C",
"t. c #709B16",
"y. c #6BA318",
"u. c #73A51B",
"i. c #75A51A",
"p. c #5D9D2B",
"a. c #5D9D3A",
"s. c #6C9E2A",
"d. c #669F20",
"f. c #749C23",
"g. c #759F29",
"h. c #7B8F36",
"j. c #6E9B33",
"k. c #6C9E38",
"l. c #699434",
"z. c #779D36",
"x. c #5EA229",
"c. c #5BA434",
"v. c #64A425",
"b. c #6BA322",
"n. c #65A62D",
"m. c #6CA529",
"M. c #69A928",
"N. c #73A424",
"B. c #73A32C",
"V. c #78A52D",
"C. c #77A726",
"Z. c #6CA131",
"A. c #64A33A",
"S. c #6AA13C",
"D. c #6BAA3D",
"F. c #63A633",
"G. c #74A43B",
"H. c #77A435",
"J. c #778E4A",
"K. c #6C9746",
"L. c #6D9A43",
"P. c #789947",
"I. c #718F51",
"U. c #769750",
"Y. c #5EA444",
"T. c #64A543",
"R. c #6BA242",
"E. c #69AB49",
"W. c #61A948",
"Q. c #829C37",
"!. c #9BCA3D",
"~. c #9BC539",
"^. c #A2C73D",
"/. c #A2CB3D",
"(. c #A4C838",
"). c #ACD23E",
"_. c #81954D",
"`. c #838659",
"'. c #859B50",
"]. c #9FBF40",
"[. c #9FBF5C",
"{. c #868764",
"}. c #8E8961",
"|. c #8E9061",
" X c #908976",
".X c #8C8773",
"XX c #9ECB45",
"oX c #9EC74F",
"OX c #A2C342",
"+X c #A3CB43",
"@X c #AACC44",
"#X c #A6CB4A",
"$X c #A1C34A",
"%X c #AAD34B",
"&X c #A9D247",
"*X c #ADCC51",
"=X c #A5C758",
"-X c #B5D455",
";X c #A7CC64",
":X c #A9C765",
">X c #EFFFEC",
",X c #E8FFE6",
"<X c #EDFFF1",
"1X c #F5FFF4",
"2X c #F8FFFA",
/* pixels */
"                                                                ",
"                                                                ",
"                                                                ",
"                                                                ",
"          @ g #       0 % % < % 6       3 < , &                 ",
"        # 5.7.9.u   X 4.}.|.`.{..Xq   o  X{.`.{.q               ",
"        n %.*.&.` v c p f s s j a j h k p s d d #               ",
"          h b ..z ) *.2.>.8.-.2.;.;.X.X.0.-.>.,.5.t             ",
"        j 1.m z z z l  .{ } #.} +.o.$.o.} +.[ | g y             ",
"        x 7.<.g _ _ %.*.;.X.@.O.@.:.X.X.@.@.3.&.=.o             ",
"        g 9.=.X 4 5 6 * e @ y y + O . + # u t r 4 6             ",
"        j 6.+ * ^ ] L P K ,X<X<X>XK ~ K >X1X2X1XA ' 2           ",
"          X 9 / P.j.k.R.! Z V V C Y S.J C C Z C U U.6           ",
"            & J.z.r.V.s.a.Y.T.E.D.p.F.c.A.E.a.S.B.l.7           ",
"            & _.g.e.u.m.F N B B N D B B M S S D b.z.8           ",
"            9 J.N.y.u.I A.T.A.S.T.Y.Y.W.W.c.c.n.I P.8           ",
"            0 J.N.y.i.r.H.s.b.y.H q.G G G n.b.N.k.U.5           ",
"              & U g.f.f.f.r.u.u.b.v.v.n.v.m.B.j.R %             ",
"                6 E U H.N.w.r.w.u.y.m.m.d.Z.W ~ 6               ",
"                  * > l.w.u.N.N.r.i.t.N.N.G.: 5                 ",
"                    > S.V.e.#X+X@X@X&X~.!.s.;                   ",
"                  % K.Z.e.%X+X^.OX@X(.)./.=XI.6                 ",
"                % L.B.r.C.XX!.%XOX-X^.(.&X$X'.% -               ",
"              w Q j.s.V.w.XX%X!.*X].&X/./.*Xh., ' i             ",
"              4 Q k.Q ; V.XX+X+XOX%X!./.^.#XQ., ' i             ",
"              w R W ; K.e.u.=X=X:X[.;X;XoXf.z.J.3 i             ",
"                4 $ ! D.y.N.% 0 7 3 = > 1 G.j.U.6               ",
"                  6 J x.v.G.-         3 T L.L.R 4               ",
"                  4 Y F.R.$           7 / R T =                 ",
"                  8 W R.^               = < =                   ",
"                  2 ( T                                         ",
"                                                                "
};
