/* XPM */
static char *_b75ad318a004594a93e57d8f60583f0vcZlYLlsVzb5Zb6Z[] = {
/* columns rows colors chars-per-pixel */
"32 32 202 2 ",
"   c None",
".  c #1F1F07",
"X  c #1F1D10",
"o  c #2A190F",
"O  c #3D160F",
"+  c #2C1D1A",
"@  c #35131A",
"#  c #39131B",
"$  c #381818",
"%  c #0F2B00",
"&  c #0C270B",
"*  c #1B2502",
"=  c #152C02",
"-  c #1A2B05",
";  c #1C230A",
":  c #142C0B",
">  c #1E2B0A",
",  c #142708",
"<  c #0D3100",
"1  c #063700",
"2  c #143300",
"3  c #1A3004",
"4  c #163603",
"5  c #1B2818",
"6  c #122E17",
"7  c #232509",
"8  c #25340A",
"9  c #222B12",
"0  c #2A2919",
"q  c #362318",
"w  c #213316",
"e  c #213018",
"r  c #3F0921",
"t  c #291B24",
"y  c #3B1A2B",
"u  c #371622",
"i  c #1B2A24",
"p  c #352029",
"a  c #440E0E",
"s  c #43140B",
"d  c #40180C",
"f  c #4B0C1D",
"g  c #460A19",
"h  c #4B1114",
"j  c #471817",
"k  c #51131E",
"l  c #5A091A",
"z  c #490420",
"x  c #530B25",
"c  c #570B27",
"v  c #491324",
"b  c #600023",
"n  c #114200",
"m  c #1A5C02",
"M  c #1C5B0A",
"N  c #165701",
"B  c #225C00",
"V  c #21540A",
"C  c #245B09",
"Z  c #204F1B",
"A  c #265713",
"S  c #186400",
"D  c #357C01",
"F  c #3C760E",
"G  c #3C7C09",
"H  c #3B6B1F",
"J  c #397919",
"K  c #2D4F2C",
"L  c #2E5320",
"P  c #265133",
"I  c #437C0A",
"U  c #497418",
"Y  c #476C1C",
"T  c #4E5E2F",
"R  c #4C6C24",
"E  c #486B29",
"W  c #4D7123",
"Q  c #4D7229",
"!  c #447527",
"~  c #4D6C3B",
"^  c #416B39",
"/  c #526C34",
"(  c #467332",
")  c #547439",
"_  c #6A3645",
"`  c #763241",
"'  c #7D4B54",
"]  c #497041",
"[  c #4A6C51",
"{  c #48694A",
"}  c #7A5461",
"|  c #971F3D",
" . c #A1172E",
".. c #A21D3A",
"X. c #9F383B",
"o. c #862C46",
"O. c #952046",
"+. c #82365C",
"@. c #A93E4B",
"#. c #BA3244",
"$. c #BB354E",
"%. c #A73B56",
"&. c #B63657",
"*. c #9D3864",
"=. c #C33C4A",
"-. c #9F454E",
";. c #874C57",
":. c #9A465B",
">. c #97475A",
",. c #AF464D",
"<. c #A64559",
"1. c #B44055",
"2. c #8F5561",
"3. c #B14463",
"4. c #A75D67",
"5. c #B85C6B",
"6. c #BC4F78",
"7. c #B05973",
"8. c #9C696E",
"9. c #9D6B77",
"0. c #A7646C",
"q. c #A46776",
"w. c #518310",
"e. c #6F9E14",
"r. c #659D1A",
"t. c #6D9F1B",
"y. c #739D13",
"u. c #709F1D",
"i. c #6EA616",
"p. c #69A31B",
"a. c #73A315",
"s. c #74A41C",
"d. c #7BA41B",
"f. c #6B9D21",
"g. c #66922B",
"h. c #679C2C",
"j. c #6E9F2B",
"k. c #689826",
"l. c #749E22",
"z. c #739D2C",
"x. c #709428",
"c. c #6E9C35",
"v. c #679C3C",
"b. c #699A36",
"n. c #769A3A",
"m. c #749837",
"M. c #758B38",
"N. c #5DA834",
"B. c #67A623",
"V. c #6DA324",
"C. c #6DA42C",
"Z. c #6AA925",
"A. c #72A422",
"S. c #7BA324",
"D. c #7BA62C",
"F. c #76A42B",
"G. c #6AA232",
"H. c #64A43B",
"J. c #6AA639",
"K. c #74A433",
"L. c #75A639",
"P. c #6E8B4B",
"I. c #679943",
"U. c #729A44",
"Y. c #799B45",
"T. c #749C4D",
"R. c #789449",
"E. c #6F865A",
"W. c #7D8B56",
"Q. c #769553",
"!. c #759A57",
"~. c #5EA542",
"^. c #63A344",
"/. c #66A549",
"(. c #68A650",
"). c #71A250",
"_. c #7C9464",
"`. c #99C73E",
"'. c #87905B",
"]. c #8A875C",
"[. c #80A150",
"{. c #8A8768",
"}. c #948870",
"|. c #98826B",
" X c #9CC544",
".X c #9BCB44",
"XX c #98C94B",
"oX c #9FD14E",
"OX c #9BCB54",
"+X c #A4C946",
"@X c #A3CC4A",
"#X c #A8CC49",
"$X c #A4C545",
"%X c #A7D34D",
"&X c #A4CC5A",
"*X c #A7C855",
"=X c #B0CB56",
"-X c #AEC269",
";X c #EAFFE6",
":X c #F1FFEE",
">X c #E7FFF5",
",X c #F2FFF6",
/* pixels */
"                                                                ",
"                                                                ",
"                                                                ",
"                                                                ",
"                                                                ",
"                                                                ",
"                ; > - ;       ; 3 = 3 * *       $ g #           ",
"              o }.{.{.}.$   q {.{.W.'.].|.q   $ 0.0.8.$         ",
"              # O d s s f f k a d d s h c c r _ >.:.;.$         ",
"            @ 9.4.4.-.5.<.%.@.<.5.-.5.5.6.*.+.x o.l h           ",
"            y v o.| $. .#.=.=.#...&.| O.O.b c z f ` ;.#         ",
"            t } >.%.%.1.,.X.@.@.%.3.<.:.>.;._ _ j 2.q.v         ",
"            i i t u y u o 0 + p u # + X 9 ; . q $ ' 7.x         ",
"          6 { K :X,X,X:XL ^ P >X:X:X;XZ ( ( ) T 7 $ q.g         ",
"          w P.W C N V B I h.! A A V M J b.K.g.Y./ > +           ",
"          - Y.c.H.^./.N.p.B.H.^.I.^.~.H.C.A.A.z.Q.=             ",
"          : c.G.B M M m S S m C B B m N J.C.u.z.R.*             ",
"          w v.I v./.(.~.N.N.^.I.b.J.^.^.F G.j.m.R.8             ",
"          & ).G.C.h.G.G D D G I V.r.G.G.L.h.U 4 % -             ",
"        i [ 1 F j.L.f.C.B.B.C.r.i.a.A.f.f.w.1 I.!.~ e           ",
"        & ] H n U U z.t.i.i.p.A.s.y.a.d.y.t.V.K.L.R *           ",
"          ~ ! R < 2 z.D.e.a.s.y.S.S.y.y.S.l.f.k.b.Q -           ",
"            ) E 2 [.x. X%X%X`.@X X@Xd.l.n.U.T.Q ) %             ",
"              3 2 U.&X%X+X$X#X+X@X@X.XD.< 2 < : &               ",
"                2 U.&X.X@X#X$X+X X%X`.A.z.Y :                   ",
"                  I.OX.X@X$X=X*X*XXX.Xp.K.W 5                   ",
"                2 U.OXoX&X*X-XM.4 c.V.V.g./ i                   ",
"                R c.V.OXm.= * 8 % T.L.U Q 3                     ",
"              7 n.D.F.%         w E.Q.E 5                       ",
"              * n.k.n.)           e - 9                         ",
"              5 _.Q./                                           ",
"                : :                                             "
};
